<?xml version="1.0" encoding="UTF-8" standalone="no"?>
<!-- Created with Inkscape (http://www.inkscape.org/) -->

<svg
   xmlns:dc="http://purl.org/dc/elements/1.1/"
   xmlns:cc="http://creativecommons.org/ns#"
   xmlns:rdf="http://www.w3.org/1999/02/22-rdf-syntax-ns#"
   xmlns:svg="http://www.w3.org/2000/svg"
   xmlns="http://www.w3.org/2000/svg"
   xmlns:sodipodi="http://sodipodi.sourceforge.net/DTD/sodipodi-0.dtd"
   xmlns:inkscape="http://www.inkscape.org/namespaces/inkscape"
   width="180"
   height="135"
   id="svg3887"
   version="1.1"
   inkscape:version="0.48.4 r9939"
   sodipodi:docname="10e-logo-5.svg">
  <defs
     id="defs3889">
    <filter
       id="filter4794"
       inkscape:label="Drop Shadow"
       color-interpolation-filters="sRGB">
      <feFlood
         id="feFlood4796"
         flood-opacity="0.2"
         flood-color="rgb(0,0,0)"
         result="flood" />
      <feComposite
         id="feComposite4798"
         in2="SourceGraphic"
         in="flood"
         operator="in"
         result="composite1" />
      <feGaussianBlur
         id="feGaussianBlur4800"
         stdDeviation="10"
         result="blur" />
      <feOffset
         id="feOffset4802"
         dx="15"
         dy="15"
         result="offset" />
      <feComposite
         id="feComposite4804"
         in2="offset"
         in="SourceGraphic"
         operator="over"
         result="composite2" />
    </filter>
  </defs>
  <sodipodi:namedview
     id="base"
     pagecolor="#ffffff"
     bordercolor="#666666"
     borderopacity="1.0"
     inkscape:pageopacity="0.0"
     inkscape:pageshadow="2"
     inkscape:zoom="2"
     inkscape:cx="353.89399"
     inkscape:cy="-4.8896549"
     inkscape:document-units="px"
     inkscape:current-layer="layer1"
     showgrid="false"
     inkscape:window-width="1855"
     inkscape:window-height="1056"
     inkscape:window-x="65"
     inkscape:window-y="24"
     inkscape:window-maximized="1" />
  <metadata
     id="metadata3892">
    <rdf:RDF>
      <cc:Work
         rdf:about="">
        <dc:format>image/svg+xml</dc:format>
        <dc:type
           rdf:resource="http://purl.org/dc/dcmitype/StillImage" />
        <dc:title />
      </cc:Work>
    </rdf:RDF>
  </metadata>
  <g
     inkscape:label="Layer 1"
     inkscape:groupmode="layer"
     id="layer1"
     transform="translate(0,-917.36218)">
    <g
       id="g4762"
       style="filter:url(#filter4794)"
       transform="translate(-207.5,-16.25)">
      <g
         transform="matrix(0.99832439,0,0,0.99832439,207.85715,-10.379505)"
         id="g4548">
        <path
           transform="matrix(1.0222688,-0.21503453,0.13443215,1.0679683,-57.043433,1068.1463)"
           d="m 202.53558,-39.711952 c 0,25.244607 -30.8668,45.7094038 -68.94291,45.7094038 -38.076121,0 -68.942913,-20.4647968 -68.942913,-45.7094038 0,-25.244607 30.866792,-45.709404 68.942913,-45.709404 38.07611,0 68.94291,20.464797 68.94291,45.709404 z"
           sodipodi:ry="45.709404"
           sodipodi:rx="68.942909"
           sodipodi:cy="-39.711952"
           sodipodi:cx="133.59267"
           id="path4487"
           style="fill:#4ea5ff;fill-opacity:1;stroke:none"
           sodipodi:type="arc" />
        <text
           transform="scale(1.0073202,0.992733)"
           sodipodi:linespacing="125%"
           id="text4489"
           y="1031.2495"
           x="12.27114"
           style="font-size:112.20092773px;font-style:normal;font-variant:normal;font-weight:normal;font-stretch:normal;line-height:125%;letter-spacing:0px;word-spacing:0px;fill:#000000;fill-opacity:1;stroke:none;font-family:Bilbo Swash Caps;-inkscape-font-specification:Bilbo Swash Caps"
           xml:space="preserve"><tspan
             y="1031.2495"
             x="12.27114"
             id="tspan4491"
             sodipodi:role="line">10e</tspan></text>
        <path
           inkscape:connector-curvature="0"
           d="m 40.892159,952.17118 c -1.700873,-0.77919 -3.281993,-0.59942 -5.038823,-0.28477 -2.56146,0.59754 -4.88379,2.07333 -7.167135,3.59616 -0.32571,0.21715 1.269045,-0.93278 0.980903,-0.64222 -0.746055,0.75229 -1.576463,1.35836 -2.364675,2.03756 -4.566915,4.24254 -8.685075,9.24203 -12.174398,14.90681 -0.752632,1.22183 -1.445069,2.50167 -2.167612,3.75253 -2.78004,5.19857 -5.1071624,10.79865 -6.7595024,16.73204 -1.0565925,3.79395 -1.176345,4.91395 -1.89573,8.80411 -0.7884825,5.6435 -0.957435,11.4467 0.176775,17.0414 0.7267275,3.5844 1.20315,4.4057 2.470635,7.7188 0.63429,1.1887 1.2042225,2.4376 1.90287,3.5667 2.3294624,3.7645 5.3092574,6.8061 8.5389224,9.2369 3.164437,2.3819 4.62624,2.9769 8.052195,4.8011 8.608627,3.9213 17.731672,5.6602 26.847847,6.0712 2.05554,0.093 4.113495,0.045 6.17025,0.067 10.794255,-0.2189 21.525922,-2.1943 32.026019,-5.3284 2.096415,-0.6257 4.173435,-1.3519 6.26013,-2.028 7.7216,-2.7691 15.31928,-6.1763 22.56457,-10.5786 4.23046,-2.5704 5.25253,-3.4476 9.25899,-6.3851 0.41584,-0.4237 0.82164,-0.8639 1.24751,-1.2712 1.19675,-1.145 2.44621,-2.2011 3.61941,-3.3847 2.10308,-2.1217 4.13755,-4.4854 5.92463,-7.0392 2.17377,-3.1065 2.43583,-3.9156 4.16536,-7.3487 2.05339,-4.7744 3.21592,-9.80195 2.95051,-15.28392 -0.17088,-3.52663 -0.53888,-4.41872 -1.31655,-7.80893 -0.46287,-1.28676 -0.85603,-2.61793 -1.38863,-3.86039 -2.51343,-5.86356 -6.36734,-10.70329 -10.6312,-14.52243 -1.25184,-1.12132 -2.58401,-2.09019 -3.87603,-3.13526 -7.80581,-5.58113 -16.4573,-8.82715 -25.25483,-10.70641 -1.89174,-0.40406 -3.79879,-0.68239 -5.69816,-1.02363 -7.414852,-1.12049 -14.892862,-1.47969 -22.355579,-1.24781 -4.253198,0.13213 -5.9331,0.34358 -10.134863,0.72148 -5.533192,0.64884 -11.070352,1.53737 -16.488022,3.14697 -1.050622,0.31206 -2.0871,0.69682 -3.130612,1.04526 0,0 2.850847,-2.77477 2.850847,-2.77477 l 0,0 c 1.028685,-0.32434 2.051078,-0.68305 3.086025,-0.97347 5.371552,-1.50724 10.850445,-2.32653 16.324987,-2.92067 4.16808,-0.34108 5.86485,-0.53813 10.083848,-0.64219 7.454947,-0.18405 14.922269,0.2185 22.327319,1.34614 1.90424,0.34526 3.81605,0.62919 5.71281,1.03572 8.86484,1.90001 17.59014,5.13599 25.48474,10.69445 1.31109,1.04596 2.66193,2.01541 3.93327,3.13789 4.33443,3.82702 8.28201,8.68406 10.86676,14.58927 0.54929,1.25489 0.95693,2.60185 1.4354,3.90279 0.81428,3.43649 1.19388,4.33175 1.38873,7.915 0.30319,5.57556 -0.85102,10.68613 -2.92987,15.55211 -1.74827,3.4927 -2.01089,4.3131 -4.21265,7.4739 -4.63529,6.6543 -10.5063,11.5706 -16.51391,15.985 -4.00218,2.9029 -4.97748,3.737 -9.20224,6.274 -7.22541,4.3387 -14.79586,7.6923 -22.486577,10.4167 -2.085435,0.6688 -4.161548,1.3868 -6.25641,2.0065 -10.53264,3.1152 -21.292102,5.0761 -32.11419,5.3063 -2.06934,-0.021 -4.139827,0.031 -6.208034,-0.059 -9.198195,-0.3961 -18.403755,-2.1179 -27.10704,-6.0079 -3.486225,-1.824 -4.951905,-2.406 -8.176508,-4.7967 -3.292672,-2.4411 -6.3252294,-5.4993 -8.7032019,-9.3108 -0.71301,-1.1429 -1.29528,-2.4085 -1.9429425,-3.6126 -1.2978075,-3.3727 -1.7715224,-4.1731 -2.5176674,-7.8244 -1.15566002,-5.655 -0.99174752,-11.5253 -0.2038275,-17.2347 0.7230075,-3.936 0.83796,-5.03519 1.8967199,-8.87633 1.64262,-5.95962 3.9502275,-11.59491 6.7156125,-16.83185 0.7177499,-1.25827 1.4057999,-2.54475 2.1532499,-3.77467 3.441037,-5.66207 7.498845,-10.67845 12.006735,-14.95639 3.550845,-3.13235 2.564827,-2.37152 7.708372,-6.07372 2.302088,-1.65698 4.784025,-2.95116 7.384433,-3.59923 0.457567,-0.0741 0.912892,-0.17617 1.372717,-0.22294 1.330448,-0.13555 2.68533,0.0455 3.95067,0.58858 0,0 -3.423487,2.90098 -3.423487,2.90098 z"
           id="path4493"
           style="fill:#000000;fill-opacity:1;stroke:#000000;stroke-width:1.00167847;stroke-miterlimit:4;stroke-dasharray:none" />
      </g>
      <rect
         ry="0.31069744"
         y="1123.2194"
         x="439.42856"
         height="2"
         width="2"
         id="rect4250"
         style="fill:none;stroke:none"
         rx="0.31069744" />
    </g>
  </g>
</svg>
