<?xml version="1.0" encoding="UTF-8" standalone="no"?>
<svg
   xmlns:dc="http://purl.org/dc/elements/1.1/"
   xmlns:cc="http://creativecommons.org/ns#"
   xmlns:rdf="http://www.w3.org/1999/02/22-rdf-syntax-ns#"
   xmlns:svg="http://www.w3.org/2000/svg"
   xmlns="http://www.w3.org/2000/svg"
   xmlns:sodipodi="http://sodipodi.sourceforge.net/DTD/sodipodi-0.dtd"
   xmlns:inkscape="http://www.inkscape.org/namespaces/inkscape"
   height="76.232002"
   id="Layer_1"
   version="1.1"
   viewBox="0 0 178 76.232"
   width="178"
   xml:space="preserve"
   inkscape:version="0.48.4 r9939"
   sodipodi:docname="1427269062_internt_web_technology-02.svg"><metadata
     id="metadata9"><rdf:RDF><cc:Work
         rdf:about=""><dc:format>image/svg+xml</dc:format><dc:type
           rdf:resource="http://purl.org/dc/dcmitype/StillImage" /></cc:Work></rdf:RDF></metadata><defs
     id="defs7" /><sodipodi:namedview
     pagecolor="#ffffff"
     bordercolor="#666666"
     borderopacity="1"
     objecttolerance="10"
     gridtolerance="10"
     guidetolerance="10"
     inkscape:pageopacity="0"
     inkscape:pageshadow="2"
     inkscape:window-width="1415"
     inkscape:window-height="911"
     id="namedview5"
     showgrid="false"
     inkscape:zoom="2.1890701"
     inkscape:cx="61.174258"
     inkscape:cy="59.056005"
     inkscape:window-x="75"
     inkscape:window-y="34"
     inkscape:window-maximized="0"
     inkscape:current-layer="Layer_1" /><path
     d="m 121.48907,37.708 -3.726,-16.331 -9.873,-1.097 -2.511,-3.15 1.131,-9.865 L 91.414068,0 l -7.008,7.028 h -4.031 l -7.01,-7.028 -15.094,7.266 1.131,9.865 -2.511,3.15 -9.873,1.097 -3.726,16.33 8.413,5.271 0.898,3.928 -5.299,8.397 10.45,13.098 9.365,-3.293 3.632,1.749 3.262,9.375 h 16.754 l 3.262,-9.375 3.632,-1.749 9.365002,3.293 10.45,-13.098 -5.299,-8.397 0.897,-3.928 8.415,-5.271 z m -11.364,17.189 -5.13,6.43 -7.693002,-2.705 -8.12,3.911 -2.68,7.699 h -8.223 l -2.68,-7.699 -8.12,-3.911 -7.693,2.705 -5.13,-6.43 4.353,-6.897 -2.01,-8.784 -6.908,-4.329 1.829,-8.017 8.109,-0.901 5.617,-7.046 -0.93,-8.101 7.41,-3.567 5.758,5.773 h 9.012 l 5.757,-5.773 7.411002,3.566 -0.930002,8.101 5.617002,7.046 8.109,0.901 1.829,8.017 -6.91,4.329 -2.006,8.785 4.352,6.897 z M 82.391068,23.587 c -8.286,0 -15,6.713 -15,15 0,8.287 6.714,15 15,15 8.286,0 15,-6.713 15,-15 0,-8.287 -6.714,-15 -15,-15 z m 0,25.5 c -5.79,0 -10.5,-4.71 -10.5,-10.5 0,-5.79 4.71,-10.5 10.5,-10.5 5.79,0 10.5,4.71 10.5,10.5 0,5.79 -4.71,10.5 -10.5,10.5 z"
     style="fill:#333f4f"
     id="path3"
     inkscape:connector-curvature="0" /><text
     sodipodi:linespacing="125%"
     id="text2998"
     y="76.168137"
     x="-10.674906"
     style="font-size:102.26544189px;font-style:normal;font-weight:normal;line-height:125%;letter-spacing:0px;word-spacing:0px;fill:#333f4f;fill-opacity:1;stroke:none;font-family:Sans"
     xml:space="preserve"><tspan
       y="76.168137"
       x="-10.674906"
       id="tspan3000"
       sodipodi:role="line">1</tspan></text>
<text
     sodipodi:linespacing="125%"
     id="text3002"
     y="74.624481"
     x="119.52765"
     style="font-size:102.26544189px;font-style:normal;font-weight:normal;line-height:125%;letter-spacing:0px;word-spacing:0px;fill:#333f4f;fill-opacity:1;stroke:none;font-family:Sans"
     xml:space="preserve"><tspan
       y="74.624481"
       x="119.52765"
       id="tspan3004"
       sodipodi:role="line">e</tspan></text>
</svg>