<?xml version="1.0" encoding="UTF-8" standalone="no"?>
<!-- Created with Inkscape (http://www.inkscape.org/) -->

<svg
   xmlns:dc="http://purl.org/dc/elements/1.1/"
   xmlns:cc="http://creativecommons.org/ns#"
   xmlns:rdf="http://www.w3.org/1999/02/22-rdf-syntax-ns#"
   xmlns:svg="http://www.w3.org/2000/svg"
   xmlns="http://www.w3.org/2000/svg"
   xmlns:sodipodi="http://sodipodi.sourceforge.net/DTD/sodipodi-0.dtd"
   xmlns:inkscape="http://www.inkscape.org/namespaces/inkscape"
   width="180"
   height="135"
   id="svg3887"
   version="1.1"
   inkscape:version="0.48.4 r9939"
   sodipodi:docname="10e-logo-5.svg">
  <defs
     id="defs3889">
    <filter
       id="filter4794"
       inkscape:label="Drop Shadow"
       color-interpolation-filters="sRGB">
      <feFlood
         id="feFlood4796"
         flood-opacity="0.2"
         flood-color="rgb(0,0,0)"
         result="flood" />
      <feComposite
         id="feComposite4798"
         in2="SourceGraphic"
         in="flood"
         operator="in"
         result="composite1" />
      <feGaussianBlur
         id="feGaussianBlur4800"
         stdDeviation="10"
         result="blur" />
      <feOffset
         id="feOffset4802"
         dx="15"
         dy="15"
         result="offset" />
      <feComposite
         id="feComposite4804"
         in2="offset"
         in="SourceGraphic"
         operator="over"
         result="composite2" />
    </filter>
  </defs>
  <sodipodi:namedview
     id="base"
     pagecolor="#ffffff"
     bordercolor="#666666"
     borderopacity="1.0"
     inkscape:pageopacity="0.0"
     inkscape:pageshadow="2"
     inkscape:zoom="2"
     inkscape:cx="353.89399"
     inkscape:cy="-4.8896549"
     inkscape:document-units="px"
     inkscape:current-layer="layer1"
     showgrid="false"
     inkscape:window-width="1855"
     inkscape:window-height="1056"
     inkscape:window-x="1985"
     inkscape:window-y="24"
     inkscape:window-maximized="1" />
  <metadata
     id="metadata3892">
    <rdf:RDF>
      <cc:Work
         rdf:about="">
        <dc:format>image/svg+xml</dc:format>
        <dc:type
           rdf:resource="http://purl.org/dc/dcmitype/StillImage" />
        <dc:title />
      </cc:Work>
    </rdf:RDF>
  </metadata>
  <g
     inkscape:label="Layer 1"
     inkscape:groupmode="layer"
     id="layer1"
     transform="translate(0,-917.36218)">
    <g
       id="g4762"
       style="filter:url(#filter4794)"
       transform="translate(-207.5,-16.25)">
      <g
         transform="matrix(0.99832439,0,0,0.99832439,207.85715,-10.379505)"
         id="g4548">
        <path
           transform="matrix(1.0222688,-0.21503453,0.13443215,1.0679683,-57.043433,1068.1463)"
           style="fill:#4ea5ff;fill-opacity:1;stroke:none"
           d="m 202.53558,-39.711952 c 0,25.244607 -30.8668,45.7094038 -68.94291,45.7094038 -38.076121,0 -68.942913,-20.4647968 -68.942913,-45.7094038 0,-25.244607 30.866792,-45.709404 68.942913,-45.709404 38.07611,0 68.94291,20.464797 68.94291,45.709404 z"
           id="path4487" />
        <g
           transform="scale(1.0073202,0.992733)"
           style="font-size:112.20092773px;font-style:normal;font-variant:normal;font-weight:normal;font-stretch:normal;line-height:125%;letter-spacing:0px;word-spacing:0px;fill:#000000;fill-opacity:1;stroke:none;font-family:Bilbo Swash Caps;-inkscape-font-specification:Bilbo Swash Caps"
           id="text4489">
          <path
             d="m 27.418265,1024.8541 c 4.188816,-0.748 8.751649,-1.122 13.688514,-1.1221 0.299173,10e-5 0.523574,0.1123 0.673205,0.3367 0.224372,0.1496 0.336573,0.374 0.336603,0.6732 -3e-5,0.374 -0.149631,0.7106 -0.448804,1.0098 -0.224431,0.2244 -0.561033,0.3366 -1.009808,0.3366 -1.346438,0 -2.655448,0.075 -3.927033,0.2244 -1.271633,0.075 -2.655443,0.2992 -4.151434,0.6732 -1.421231,0.2992 -2.618039,0.561 -3.59043,0.7854 -0.897623,0.2244 -2.206632,0.6732 -3.927032,1.3464 -1.720425,0.5984 -2.879834,1.0098 -3.478229,1.2342 -0.598414,0.2244 -1.907423,0.748 -3.927032,1.5708 -1.94482,0.8228 -3.141629,1.309 -3.59043,1.4586 l -0.336603,0 c -0.374004,0 -0.710606,-0.2618 -1.009808,-0.7854 -0.224402,-0.5236 -0.336603,-1.0846 -0.336603,-1.683 0,-0.9724 0.261802,-1.5708 0.785407,-1.7952 5.834441,-2.1692 9.050864,-3.3286 9.649279,-3.4782 1.795203,-3.0669 5.610031,-9.9859 11.444495,-20.7572 5.83442,-10.84606 9.985851,-18.47571 12.454303,-22.889 -4.114064,2.46847 -8.564697,4.56289 -13.35191,6.28326 l -0.561005,0.1122 c -0.598425,4e-5 -0.897627,-0.33656 -0.897608,-1.00981 -1.9e-5,-0.14956 -1.9e-5,-0.29916 0,-0.4488 0.07478,-0.14956 0.186982,-0.29916 0.336603,-0.44881 0.149581,-0.14955 0.336583,-0.26176 0.561005,-0.3366 4.114009,-1.57077 10.135453,-5.3856 18.064349,-11.4445 l 0.561005,-1.0098 c 0.673166,-1.12195 2.056976,-1.68296 4.151434,-1.68302 1.86997,6e-5 2.804977,0.44886 2.805023,1.34641 -4.6e-5,0.22446 -0.07485,0.48626 -0.224401,0.78541 l -30.743055,50.71486"
             style=""
             id="path3148" />
          <path
             d="m 103.58867,973.12943 c -1.94487,-0.67315 -3.627884,-1.00975 -5.049042,-1.00981 -0.224454,6e-5 -0.486256,6e-5 -0.785406,0 2.094363,0.74807 3.889578,1.87008 5.385648,3.36603 3.51556,3.36608 5.27338,7.66711 5.27344,12.90311 -6e-5,4.78727 -1.42127,9.79891 -4.26364,15.03494 -2.76767,5.236 -6.470301,9.9111 -11.107887,14.0251 -2.767668,2.4684 -5.610088,4.6376 -8.527271,6.5077 -2.91726,1.87 -5.797081,3.4034 -8.639471,4.6002 -2.76765,1.1968 -5.46047,2.0944 -8.078467,2.6928 -2.54324,0.5236 -5.049059,0.7854 -7.517462,0.7854 -1.271624,0 -2.468433,-0.075 -3.59043,-0.2244 -2.61803,-0.374 -4.600244,-1.5334 -5.946649,-3.4782 -1.346415,-2.0196 -2.01962,-4.6376 -2.019617,-7.8541 -3e-6,-6.5824 2.468415,-13.9129 7.405262,-21.99136 3.066811,-5.0864 7.405243,-10.02324 13.015307,-14.81052 5.610018,-4.78719 11.220058,-8.45242 16.83014,-10.99569 -0.972448,-0.89755 -0.448844,-1.49595 1.570812,-1.79522 l 1.795215,-0.1122 c 0.598361,6e-5 1.159365,0.0375 1.683014,0.1122 1.869968,-0.59834 4.300986,-0.89754 7.293061,-0.8976 4.787183,6e-5 7.180803,0.86026 7.180863,2.58062 -0.14967,0.82286 -0.78547,1.00986 -1.90742,0.561 m -50.490417,49.03177 c -8e-6,2.6929 0.486196,4.6377 1.458612,5.8345 1.047198,1.1968 2.69281,1.7952 4.936841,1.7952 4.637619,0 9.499655,-1.3464 14.58612,-4.0392 5.161209,-2.7676 9.985844,-6.1337 14.47392,-10.0981 3.590383,-3.1416 6.545004,-6.5076 8.863873,-10.0981 2.393566,-3.6652 4.001781,-6.91903 4.824641,-9.76148 0.82275,-2.91719 1.23415,-5.75961 1.23421,-8.52727 -6e-5,-2.31877 -0.29926,-4.33839 -0.89761,-6.05885 -0.59846,-1.79517 -1.30906,-3.02937 -2.13182,-3.70263 -3.066873,-2.31877 -5.984094,-3.77738 -8.751668,-4.37584 -5.98409,1.87007 -11.818532,5.5353 -17.503345,10.99569 -5.68487,5.46049 -10.098102,10.65913 -13.239709,15.59593 -4.413248,6.80685 -6.993867,13.42675 -7.741864,19.85955 -0.07481,0.8976 -0.112209,1.7578 -0.112201,2.5806"
             style=""
             id="path3150" />
          <path
             d="m 137.76437,996.35502 c 0.44878,2.31885 0.67318,4.18888 0.67321,5.61008 -3e-5,1.6456 -0.56103,3.0668 -1.68301,4.2636 -1.12204,1.122 -2.58065,1.9448 -4.37584,2.4684 -1.79524,0.4489 -3.40345,0.7855 -4.82464,1.0098 -1.42123,0.1497 -2.76764,0.2245 -4.03923,0.2244 -0.74802,1e-4 -1.60823,1e-4 -2.58062,0 -0.89762,-0.075 -1.38383,-0.1121 -1.45862,-0.1122 -2.46843,6.2833 -3.70264,11.2201 -3.70263,14.8106 -10e-6,2.992 1.122,4.488 3.36603,4.488 1.5708,0 3.40341,-0.9724 5.49785,-2.9172 2.09439,-2.0196 3.92701,-4.0019 5.49784,-5.9467 1.57079,-2.0196 2.5058,-3.0294 2.80502,-3.0294 0.52358,0 0.78539,0.2992 0.78541,0.8976 -2e-5,2.0944 -2.05704,5.0117 -6.17105,8.7517 -4.11405,3.6652 -7.33047,5.4978 -9.64928,5.4978 -1.87002,0 -3.59044,-0.561 -5.16124,-1.683 -1.49602,-1.1968 -2.24402,-3.1416 -2.24402,-5.8344 0,-0.8228 0.1122,-1.7952 0.3366,-2.9173 0.5236,-2.8424 1.19681,-5.61 2.01962,-8.3028 0.8976,-2.6928 1.3838,-4.3384 1.45861,-4.9369 -1.12201,-0.2992 -1.68302,-0.8976 -1.68301,-1.7952 -1e-5,-0.8228 0.6358,-1.2342 1.90741,-1.2342 l 0.78541,0 c 2.99201,-5.90922 4.71243,-9.31264 5.16124,-10.21028 2.0944,-3.9644 6.09623,-5.94661 12.0055,-5.94665 2.54319,4e-5 4.30101,2.28145 5.27344,6.84425 m -4.03923,5.38568 c -2e-5,-1.87002 -0.18703,-3.47823 -0.561,-4.82467 -0.37403,-1.34638 -0.82283,-2.28138 -1.34641,-2.80503 -0.44883,-0.52356 -0.93504,-0.78536 -1.45862,-0.7854 -1.49603,4e-5 -3.29124,1.60825 -5.38564,4.82464 -2.01963,3.21646 -3.51564,6.05886 -4.48804,8.52726 0.14959,0 0.74799,0.037 1.79522,0.1122 1.04719,0.075 1.9448,0.1122 2.69282,0.1122 3.0668,0 5.27342,-0.3366 6.61985,-1.0098 1.34639,-0.6732 2.05699,-2.057 2.13182,-4.1514"
             style=""
             id="path3152" />
        </g>
        <path
           inkscape:connector-curvature="0"
           d="m 40.892159,952.17118 c -1.700873,-0.77919 -3.281993,-0.59942 -5.038823,-0.28477 -2.56146,0.59754 -4.88379,2.07333 -7.167135,3.59616 -0.32571,0.21715 1.269045,-0.93278 0.980903,-0.64222 -0.746055,0.75229 -1.576463,1.35836 -2.364675,2.03756 -4.566915,4.24254 -8.685075,9.24203 -12.174398,14.90681 -0.752632,1.22183 -1.445069,2.50167 -2.167612,3.75253 -2.78004,5.19857 -5.1071624,10.79865 -6.7595024,16.73204 -1.0565925,3.79395 -1.176345,4.91395 -1.89573,8.80411 -0.7884825,5.6435 -0.957435,11.4467 0.176775,17.0414 0.7267275,3.5844 1.20315,4.4057 2.470635,7.7188 0.63429,1.1887 1.2042225,2.4376 1.90287,3.5667 2.3294624,3.7645 5.3092574,6.8061 8.5389224,9.2369 3.164437,2.3819 4.62624,2.9769 8.052195,4.8011 8.608627,3.9213 17.731672,5.6602 26.847847,6.0712 2.05554,0.093 4.113495,0.045 6.17025,0.067 10.794255,-0.2189 21.525922,-2.1943 32.026019,-5.3284 2.096415,-0.6257 4.173435,-1.3519 6.26013,-2.028 7.7216,-2.7691 15.31928,-6.1763 22.56457,-10.5786 4.23046,-2.5704 5.25253,-3.4476 9.25899,-6.3851 0.41584,-0.4237 0.82164,-0.8639 1.24751,-1.2712 1.19675,-1.145 2.44621,-2.2011 3.61941,-3.3847 2.10308,-2.1217 4.13755,-4.4854 5.92463,-7.0392 2.17377,-3.1065 2.43583,-3.9156 4.16536,-7.3487 2.05339,-4.7744 3.21592,-9.80195 2.95051,-15.28392 -0.17088,-3.52663 -0.53888,-4.41872 -1.31655,-7.80893 -0.46287,-1.28676 -0.85603,-2.61793 -1.38863,-3.86039 -2.51343,-5.86356 -6.36734,-10.70329 -10.6312,-14.52243 -1.25184,-1.12132 -2.58401,-2.09019 -3.87603,-3.13526 -7.80581,-5.58113 -16.4573,-8.82715 -25.25483,-10.70641 -1.89174,-0.40406 -3.79879,-0.68239 -5.69816,-1.02363 -7.414852,-1.12049 -14.892862,-1.47969 -22.355579,-1.24781 -4.253198,0.13213 -5.9331,0.34358 -10.134863,0.72148 -5.533192,0.64884 -11.070352,1.53737 -16.488022,3.14697 -1.050622,0.31206 -2.0871,0.69682 -3.130612,1.04526 0,0 2.850847,-2.77477 2.850847,-2.77477 l 0,0 c 1.028685,-0.32434 2.051078,-0.68305 3.086025,-0.97347 5.371552,-1.50724 10.850445,-2.32653 16.324987,-2.92067 4.16808,-0.34108 5.86485,-0.53813 10.083848,-0.64219 7.454947,-0.18405 14.922269,0.2185 22.327319,1.34614 1.90424,0.34526 3.81605,0.62919 5.71281,1.03572 8.86484,1.90001 17.59014,5.13599 25.48474,10.69445 1.31109,1.04596 2.66193,2.01541 3.93327,3.13789 4.33443,3.82702 8.28201,8.68406 10.86676,14.58927 0.54929,1.25489 0.95693,2.60185 1.4354,3.90279 0.81428,3.43649 1.19388,4.33175 1.38873,7.915 0.30319,5.57556 -0.85102,10.68613 -2.92987,15.55211 -1.74827,3.4927 -2.01089,4.3131 -4.21265,7.4739 -4.63529,6.6543 -10.5063,11.5706 -16.51391,15.985 -4.00218,2.9029 -4.97748,3.737 -9.20224,6.274 -7.22541,4.3387 -14.79586,7.6923 -22.486577,10.4167 -2.085435,0.6688 -4.161548,1.3868 -6.25641,2.0065 -10.53264,3.1152 -21.292102,5.0761 -32.11419,5.3063 -2.06934,-0.021 -4.139827,0.031 -6.208034,-0.059 -9.198195,-0.3961 -18.403755,-2.1179 -27.10704,-6.0079 -3.486225,-1.824 -4.951905,-2.406 -8.176508,-4.7967 -3.292672,-2.4411 -6.3252294,-5.4993 -8.7032019,-9.3108 -0.71301,-1.1429 -1.29528,-2.4085 -1.9429425,-3.6126 -1.2978075,-3.3727 -1.7715224,-4.1731 -2.5176674,-7.8244 -1.15566002,-5.655 -0.99174752,-11.5253 -0.2038275,-17.2347 0.7230075,-3.936 0.83796,-5.03519 1.8967199,-8.87633 1.64262,-5.95962 3.9502275,-11.59491 6.7156125,-16.83185 0.7177499,-1.25827 1.4057999,-2.54475 2.1532499,-3.77467 3.441037,-5.66207 7.498845,-10.67845 12.006735,-14.95639 3.550845,-3.13235 2.564827,-2.37152 7.708372,-6.07372 2.302088,-1.65698 4.784025,-2.95116 7.384433,-3.59923 0.457567,-0.0741 0.912892,-0.17617 1.372717,-0.22294 1.330448,-0.13555 2.68533,0.0455 3.95067,0.58858 0,0 -3.423487,2.90098 -3.423487,2.90098 z"
           id="path4493"
           style="fill:#000000;fill-opacity:1;stroke:#000000;stroke-width:1.00167847;stroke-miterlimit:4;stroke-dasharray:none" />
      </g>
      <path
         style="fill:none;stroke:none"
         d="m 439.73926,1123.2194 1.3786,0 c 0.17213,0 0.3107,0.1385 0.3107,0.3107 l 0,1.3786 c 0,0.1721 -0.13857,0.3107 -0.3107,0.3107 l -1.3786,0 c -0.17213,0 -0.3107,-0.1386 -0.3107,-0.3107 l 0,-1.3786 c 0,-0.1722 0.13857,-0.3107 0.3107,-0.3107 z"
         id="rect4250" />
    </g>
  </g>
</svg>
