<?xml version="1.0" encoding="UTF-8" standalone="no"?>
<svg
   xmlns:dc="http://purl.org/dc/elements/1.1/"
   xmlns:cc="http://creativecommons.org/ns#"
   xmlns:rdf="http://www.w3.org/1999/02/22-rdf-syntax-ns#"
   xmlns:svg="http://www.w3.org/2000/svg"
   xmlns="http://www.w3.org/2000/svg"
   xmlns:sodipodi="http://sodipodi.sourceforge.net/DTD/sodipodi-0.dtd"
   xmlns:inkscape="http://www.inkscape.org/namespaces/inkscape"
   width="317"
   height="317"
   viewBox="0 0 253.6 253.6"
   version="1.1"
   id="svg2"
   inkscape:version="0.48.4 r9939"
   sodipodi:docname="construction.svg">
  <metadata
     id="metadata28">
    <rdf:RDF>
      <cc:Work
         rdf:about="">
        <dc:format>image/svg+xml</dc:format>
        <dc:type
           rdf:resource="http://purl.org/dc/dcmitype/StillImage" />
      </cc:Work>
    </rdf:RDF>
  </metadata>
  <defs
     id="defs26" />
  <sodipodi:namedview
     pagecolor="#ffffff"
     bordercolor="#666666"
     borderopacity="1"
     objecttolerance="10"
     gridtolerance="10"
     guidetolerance="10"
     inkscape:pageopacity="1"
     inkscape:pageshadow="2"
     inkscape:window-width="1855"
     inkscape:window-height="1056"
     id="namedview24"
     showgrid="false"
     inkscape:zoom="1.668772"
     inkscape:cx="341.95556"
     inkscape:cy="110.59285"
     inkscape:window-x="65"
     inkscape:window-y="24"
     inkscape:window-maximized="1"
     inkscape:current-layer="svg2" />
  <rect
     style="fill:#ffff00;fill-opacity:1;stroke:none"
     id="rect3825"
     width="253.60001"
     height="253.60001"
     x="0"
     y="-6.1035157e-06"
     ry="0"
     rx="0" />
  <g
     id="g3821"
     transform="translate(-316.87972,62.321276)">
    <path
       id="path12"
       d="m 450.0009,0.748493 c 4.49938,-0.800302 9.69866,-0.200075 12.9982,3.20121 3.69949,3.301247 6.09915,8.703288 4.69935,13.605141 -0.49993,5.302003 -5.0993,9.403553 -9.99862,10.704044 -8.89876,3.101172 -19.69727,-5.502079 -18.09749,-15.00567 1.09985,-5.502079 5.0993,-10.503969 10.39856,-12.504725 z"
       inkscape:connector-curvature="0"
       style="fill:#010102;stroke:#010102;stroke-width:0.09375" />
    <path
       id="path14"
       transform="scale(0.8,0.8)"
       d="m 490.5,28.6875 c -4.2494,2.375897 -5.75017,7.123346 -7,11.5 -1.74976,7.502835 -3.12523,15.028464 -4.75,22.40625 -2.37466,-1.500562 -4.7503,-3.249244 -6.875,-5.25 -2.37468,0.875331 -4.12482,2.999 -2.875,5.625 3.12457,1.625612 5.7504,3.999238 8.625,6 -0.12499,3.126175 2.00043,5.624625 5,6.625 -2.74961,4.001513 -8.5,6.122875 -8.5,11.75 -0.62492,14.00529 0.12492,27.9947 -0.375,42 -2.8746,11.75444 -5.8754,23.40181 -8.75,35.15625 -0.24996,4.2516 -1.24937,9.8741 3.25,12.25 4.9993,4.12656 13.50015,0.75231 14.625,-5.375 3.74948,-14.63053 7.75051,-29.15077 11.375,-43.65625 0.49994,-9.2535 0,-18.62151 0.125,-27.875 7.74893,8.87835 15.00103,18.12155 22.375,27.25 -2.8746,5.87721 -6.00038,11.77899 -8.75,17.78125 -3.49951,8.75331 -8.87535,16.49655 -11.375,25.625 0.87487,2.87609 2.37534,5.74929 4.875,7.625 3.99944,1.87571 8.87545,0.12595 12.125,-2.375 2.99959,-5.00189 5.75034,-10.24801 8.25,-15.5 4.12443,-8.37816 9.37551,-16.37174 13,-25 1.12485,-2.75104 3.37496,-5.40506 3.125,-8.53125 0.24996,-4.87684 -3.37544,-8.62372 -6.5,-12 -0.49994,-1.25046 1.62509,-2.37561 2.25,-0.75 13.99806,11.50435 28.12694,22.77691 42.125,34.28125 -4.62436,2.626 -8.50032,6.3732 -10.875,11.125 -4.49937,-0.87534 -7.25029,2.74878 -9.375,6 0.99986,2.75104 -1.12529,3.49981 -3.25,4 -4.12442,0 -7.8755,1.74939 -11.5,3.375 -1.37481,2.12581 -2.75022,4.24929 -4.375,6.125 7.74892,1.12542 15.50106,-0.25029 23.125,0.5 31.12069,-0.50019 62.12931,-0.1249 93.25,-0.375 -2.74961,-5.87721 -8.12598,-11.00019 -15.125,-10.5 -1.4998,-2.50095 -3.75039,-4.24954 -6.5,-5.5 -0.12499,-5.12694 -2.37563,-10.62391 -6.875,-13.5 -2.62464,-1.50056 -6.00036,-1.00047 -8.625,0.25 -1.74976,-3.50133 -4.00036,-6.74891 -6.625,-9.625 -1.99973,-2.25085 -5.25039,-2.62463 -8,-3.625 -7.49896,-1.75066 -13.50065,3.87306 -18.25,9 -16.37272,-11.87949 -31.50227,-25.40171 -47.875,-37.40625 7.12401,-13.5051 14.62601,-26.74495 21.875,-40.125 2.49966,-4.87685 -0.12538,-10.123441 -2.875,-14.25 -5.37425,-8.128071 -11.62571,-15.653131 -16.75,-23.90625 -2.49965,-0.500189 -5.00036,-1.125048 -7.625,-1 -12.9982,0 -26.00181,4.8e-5 -39.125,-0.125 z m 7.875,18.375 c 4.49937,0.125047 8.87561,0.125 13.25,0.125 -5.37425,5.752174 -11.5007,10.903976 -16.625,16.90625 0.62492,-5.75218 2.25016,-11.279076 3.375,-17.03125 z m 32.75,31.78125 c -2.49965,6.3774 -6.75035,11.622638 -9.25,17.875 -3.99945,-2.751037 -7.87549,-5.498763 -11.375,-8.75 6.87404,-3.126175 13.75095,-5.998825 20.625,-9.125 z"
       style="fill:#010102;stroke:#010102;stroke-width:0.1171875"
       inkscape:connector-curvature="0" />
  </g>
</svg>
